<svg width="17" height="22" viewBox="0 0 17 22" fill="none" xmlns="http://www.w3.org/2000/svg">
<path d="M4.36866 14.4599L3.5 21L8.0884 18.247C8.23805 18.1572 8.31288 18.1123 8.39276 18.0947C8.46341 18.0792 8.53659 18.0792 8.60724 18.0947C8.68712 18.1123 8.76195 18.1572 8.9116 18.247L13.5 21L12.6319 14.4571M12.9259 3.24888C13.0803 3.6224 13.3768 3.9193 13.75 4.0743L15.0589 4.61648C15.4325 4.77121 15.7292 5.06799 15.884 5.44154C16.0387 5.81509 16.0387 6.23481 15.884 6.60836L15.3422 7.91635C15.1874 8.29007 15.1872 8.71021 15.3427 9.08374L15.8835 10.3913C15.9602 10.5764 15.9997 10.7747 15.9997 10.975C15.9998 11.1752 15.9603 11.3736 15.8837 11.5586C15.8071 11.7436 15.6947 11.9118 15.5531 12.0534C15.4114 12.195 15.2433 12.3073 15.0582 12.3839L13.7503 12.9256C13.3768 13.0801 13.0799 13.3765 12.9249 13.7498L12.3827 15.0588C12.228 15.4323 11.9312 15.7291 11.5577 15.8838C11.1841 16.0386 10.7644 16.0386 10.3909 15.8838L9.08296 15.342C8.70942 15.1877 8.28987 15.188 7.91656 15.3429L6.60767 15.8843C6.23434 16.0387 5.81501 16.0386 5.44178 15.884C5.06854 15.7293 4.77194 15.4329 4.61711 15.0598L4.07479 13.7504C3.92035 13.3769 3.62391 13.08 3.25064 12.925L1.94175 12.3828C1.56838 12.2282 1.27169 11.9316 1.11691 11.5582C0.962131 11.1849 0.961921 10.7654 1.11633 10.3919L1.6581 9.08391C1.81244 8.71035 1.81213 8.29079 1.65722 7.91746L1.11623 6.60759C1.03953 6.42257 1.00003 6.22426 1 6.02397C0.999968 5.82369 1.0394 5.62536 1.11604 5.44032C1.19268 5.25529 1.30504 5.08716 1.44668 4.94556C1.58832 4.80396 1.75647 4.69166 1.94152 4.61508L3.24947 4.07329C3.62265 3.91898 3.91936 3.6229 4.07448 3.25004L4.61664 1.94111C4.77136 1.56756 5.06813 1.27078 5.44167 1.11605C5.8152 0.961318 6.2349 0.961318 6.60844 1.11605L7.91638 1.65784C8.28993 1.81218 8.70948 1.81187 9.08279 1.65696L10.3922 1.11689C10.7657 0.962245 11.1853 0.962277 11.5588 1.11697C11.9322 1.27167 12.229 1.56837 12.3837 1.94182L12.926 3.25115L12.9259 3.24888Z" stroke="#0F172A" stroke-width="2" stroke-linecap="round" stroke-linejoin="round"/>
</svg>
