<svg width="38" height="36" viewBox="0 0 38 36" fill="none" xmlns="http://www.w3.org/2000/svg">
<path d="M20.4224 22.3303L28.5534 34.2557M16.6845 22.3303L8.55341 34.2557M21.8867 19.5892C21.8867 21.4301 20.3944 22.9225 18.5534 22.9225C16.7125 22.9225 15.2201 21.4301 15.2201 19.5892C15.2201 17.7482 16.7125 16.2558 18.5534 16.2558C20.3944 16.2558 21.8867 17.7482 21.8867 19.5892ZM27.1343 5.14294L7.49377 10.4056C7.04296 10.5264 6.81756 10.5868 6.66888 10.7207C6.5381 10.8384 6.44795 10.9945 6.41136 11.1667C6.36977 11.3624 6.43017 11.5878 6.55096 12.0386L8.0176 17.5122C8.13839 17.963 8.19879 18.1884 8.33266 18.3371C8.45042 18.4678 8.60655 18.558 8.77869 18.5946C8.97438 18.6362 9.19979 18.5758 9.65059 18.455L29.2911 13.1923L27.1343 5.14294ZM34.8741 13.4218C33.0708 13.905 32.1692 14.1466 31.3864 13.9802C30.6979 13.8339 30.0733 13.4733 29.6023 12.9502C29.0668 12.3554 28.8253 11.4538 28.3421 9.65059L28.0833 8.68467C27.6001 6.88144 27.3585 5.97982 27.5249 5.19705C27.6712 4.5085 28.0318 3.88396 28.5549 3.41294C29.1497 2.87746 30.0513 2.63587 31.8545 2.15269C32.3053 2.0319 32.5307 1.9715 32.7264 2.0131C32.8985 2.04969 33.0547 2.13983 33.1724 2.27061C33.3063 2.41929 33.3667 2.6447 33.4875 3.0955L35.8169 11.7888C35.9377 12.2396 35.9981 12.465 35.9565 12.6607C35.9199 12.8329 35.8297 12.989 35.6989 13.1068C35.5503 13.2406 35.3249 13.301 34.8741 13.4218ZM4.3896 18.1392L6.64343 17.5353C7.09423 17.4145 7.31964 17.3541 7.46831 17.2202C7.5991 17.1025 7.68924 16.9463 7.72583 16.7742C7.76743 16.5785 7.70703 16.3531 7.58623 15.9023L6.98232 13.6485C6.86153 13.1977 6.80113 12.9723 6.66726 12.8236C6.54951 12.6928 6.39337 12.6026 6.22124 12.5661C6.02554 12.5245 5.80014 12.5849 5.34933 12.7057L3.0955 13.3096C2.6447 13.4304 2.41929 13.4908 2.27061 13.6246C2.13983 13.7424 2.04969 13.8985 2.0131 14.0707C1.9715 14.2663 2.0319 14.4917 2.15269 14.9426L2.75661 17.1964C2.8774 17.6472 2.9378 17.8726 3.07167 18.0213C3.18942 18.1521 3.34556 18.2422 3.51769 18.2788C3.71339 18.3204 3.93879 18.26 4.3896 18.1392Z" stroke="#3B82F6" stroke-width="3.33333" stroke-linecap="round" stroke-linejoin="round"/>
</svg>
