<svg width="37" height="34" viewBox="0 0 37 34" fill="none" xmlns="http://www.w3.org/2000/svg">
<path d="M35.3333 12H2M22 26.1667L26.1667 22L22 17.8333M15.3333 17.8333L11.1667 22L15.3333 26.1667M2 10L2 24C2 26.8003 2 28.2004 2.54497 29.2699C3.02433 30.2108 3.78924 30.9757 4.73005 31.455C5.79961 32 7.19974 32 10 32H27.3333C30.1336 32 31.5337 32 32.6033 31.455C33.5441 30.9757 34.309 30.2108 34.7884 29.27C35.3333 28.2004 35.3333 26.8003 35.3333 24V10C35.3333 7.19974 35.3333 5.79961 34.7884 4.73005C34.309 3.78924 33.5441 3.02434 32.6033 2.54497C31.5337 2 30.1336 2 27.3333 2L10 2C7.19974 2 5.79961 2 4.73005 2.54497C3.78924 3.02433 3.02433 3.78924 2.54497 4.73005C2 5.79961 2 7.19974 2 10Z" stroke="#3B82F6" stroke-width="3.33333" stroke-linecap="round" stroke-linejoin="round"/>
</svg>
