<svg width="37" height="34" viewBox="0 0 37 34" fill="none" xmlns="http://www.w3.org/2000/svg">
<path d="M12 32V8.66667C12 7.11671 12 6.34174 12.1704 5.7059C12.6327 3.98044 13.9804 2.63271 15.7059 2.17037C16.3417 2 17.1167 2 18.6667 2C20.2166 2 20.9916 2 21.6274 2.17037C23.3529 2.63271 24.7006 3.98044 25.163 5.7059C25.3333 6.34174 25.3333 7.11671 25.3333 8.66667V32M7.33333 32H30C31.8668 32 32.8003 32 33.5133 31.6367C34.1405 31.3171 34.6504 30.8072 34.97 30.18C35.3333 29.4669 35.3333 28.5335 35.3333 26.6667V14C35.3333 12.1332 35.3333 11.1997 34.97 10.4867C34.6504 9.85949 34.1405 9.34956 33.5133 9.02998C32.8003 8.66667 31.8668 8.66667 30 8.66667H7.33333C5.46649 8.66667 4.53307 8.66667 3.82003 9.02998C3.19282 9.34956 2.68289 9.85949 2.36331 10.4867C2 11.1997 2 12.1332 2 14V26.6667C2 28.5335 2 29.4669 2.36331 30.18C2.68289 30.8072 3.19282 31.3171 3.82003 31.6367C4.53307 32 5.46649 32 7.33333 32Z" stroke="#3B82F6" stroke-width="3.33333" stroke-linecap="round" stroke-linejoin="round"/>
</svg>
