<svg width="35" height="35" viewBox="0 0 35 35" fill="none" xmlns="http://www.w3.org/2000/svg">
<path d="M17.3247 17.3249H17.3414M23.2173 23.2175C15.4068 31.028 6.43694 34.7214 3.18257 31.4671C-0.0717941 28.2127 3.62167 19.2429 11.4322 11.4324C19.2426 3.6219 28.2125 -0.0715597 31.4668 3.18281C34.7212 6.43718 31.0278 15.407 23.2173 23.2175ZM23.2172 11.4321C31.0277 19.2426 34.7211 28.2124 31.4668 31.4668C28.2124 34.7211 19.2426 31.0277 11.4321 23.2172C3.6216 15.4067 -0.0718611 6.43688 3.18251 3.18251C6.43688 -0.0718611 15.4067 3.6216 23.2172 11.4321ZM18.158 17.3249C18.158 17.7852 17.7849 18.1583 17.3247 18.1583C16.8645 18.1583 16.4914 17.7852 16.4914 17.3249C16.4914 16.8647 16.8645 16.4916 17.3247 16.4916C17.7849 16.4916 18.158 16.8647 18.158 17.3249Z" stroke="#3B82F6" stroke-width="3.33333" stroke-linecap="round" stroke-linejoin="round"/>
</svg>
