<svg width="36" height="28" viewBox="0 0 36 28" fill="none" xmlns="http://www.w3.org/2000/svg">
<path d="M3.166 24.996C1.106 22.808 0 20.354 0 16.376C0 9.376 4.914 3.102 12.06 0L13.846 2.756C7.176 6.364 5.872 11.046 5.352 13.998C6.426 13.442 7.832 13.248 9.21 13.376C12.818 13.71 15.662 16.672 15.662 20.354C15.662 22.2105 14.9245 23.991 13.6117 25.3037C12.299 26.6165 10.5185 27.354 8.662 27.354C7.63532 27.345 6.62067 27.1319 5.67712 26.7271C4.73358 26.3223 3.87997 25.7338 3.166 24.996ZM23.166 24.996C21.106 22.808 20 20.354 20 16.376C20 9.376 24.914 3.102 32.06 0L33.846 2.756C27.176 6.364 25.872 11.046 25.352 13.998C26.426 13.442 27.832 13.248 29.21 13.376C32.818 13.71 35.662 16.672 35.662 20.354C35.662 22.2105 34.9245 23.991 33.6117 25.3037C32.299 26.6165 30.5185 27.354 28.662 27.354C27.6353 27.345 26.6207 27.1319 25.6771 26.7271C24.7336 26.3223 23.88 25.7338 23.166 24.996Z" fill="#3B82F6"/>
</svg>
